<svg width="368" height="653" viewBox="0 0 368 653" fill="none" xmlns="http://www.w3.org/2000/svg">
<path d="M402.316 201.083C415.942 223.628 428.797 246.51 440.176 269.325C451.695 248.063 465.392 224.843 481.548 199.463C469.326 180.833 455.699 161.055 440.457 140.063C426.76 160.988 413.976 181.373 402.386 201.083" fill="#6497EA" fill-opacity="0.05"/>
<path d="M533.246 12.6226L528.119 19.3051C511.401 40.6351 495.597 61.5601 480.846 82.0801C494.333 100.238 508.241 119.61 521.938 139.658C533.176 123.795 545.047 107.258 558.112 89.8426L560.289 87.1426L562.186 89.8426C707.795 279.18 739.755 380.093 739.685 431.933C739.685 433.823 739.685 435.645 739.545 437.4C734.066 556.2 626.667 581.513 581.853 586.913C553.897 612.428 519.83 629.978 484.71 640.373C506.836 647.19 528.681 650.97 547.295 652.455C548.559 652.455 556.356 652.86 564.714 652.86C569.35 652.86 574.056 652.725 578.201 652.455C679.488 645.098 800.233 585.023 806.976 440.303C807.117 437.873 807.187 435.375 807.187 432.878C807.608 307.328 672.815 120.42 591.336 19.0351L585.927 12.2851C579.676 4.52263 569.912 0.337632 559.587 0.135132C549.261 0.135132 539.638 4.79263 533.387 12.6226" fill="#6497EA" fill-opacity="0.05"/>
<path d="M317.958 432.878C317.958 435.443 318.028 437.873 318.168 440.303C320.346 487.688 335.026 525.285 356.871 554.985C374.993 543.105 391.851 526.905 403.792 504.833C393.537 486.743 386.864 464.468 385.74 437.603C385.6 435.375 385.6 433.013 385.6 430.583C385.6 410.805 390.166 384.413 403.23 349.178C394.661 326.565 382.439 300.24 365.511 269.663C334.394 333.923 317.887 389.205 318.028 432.81" fill="#6497EA" fill-opacity="0.05"/>
<path d="M422.829 586.913C438.212 585.023 460.689 580.905 484.22 571.455C473.192 567.068 462.023 561.533 451.347 554.648C442.918 566.528 433.295 577.26 422.829 586.913Z" fill="#6497EA" fill-opacity="0.05"/>
<path d="M215.265 12.6225L209.997 19.305C70.287 198.045 -4.23886 347.49 0.186328 440.302C7.35092 594.338 147.061 646.11 229.102 652.455C230.507 652.455 238.304 652.86 246.592 652.86C251.298 652.86 255.934 652.725 259.938 652.455C281.291 650.903 303.558 647.055 325.473 640.372C291.617 630.045 256.285 613.035 226.854 586.845C183.094 581.242 72.8156 555.39 67.4773 437.603C65.0891 387.18 93.1153 285.998 239.919 89.8425L242.027 87.1425L244.064 89.8425C257.62 107.393 269.982 123.998 281.572 140.063C296.744 161.055 310.371 180.833 322.593 199.463C339.451 225.045 353.64 248.468 365.37 269.663C382.298 300.308 394.52 326.565 403.089 349.178C418.261 388.733 422.335 417.15 421.422 437.332C420.017 464.4 413.626 486.675 403.722 504.765C391.851 526.905 374.923 543.038 356.801 554.918C346.545 561.668 335.658 567 325.122 571.388C348.512 580.635 370.989 584.82 385.74 586.778C396.487 588.06 403.37 588.263 403.651 588.263C404.916 588.263 412.151 588.06 422.757 586.845C433.223 577.193 442.846 566.46 451.275 554.58C472.558 524.61 486.606 486.81 488.713 440.235C491.102 390.622 470.591 330.278 440.036 269.258C428.657 246.443 415.803 223.56 402.176 201.015C389.463 180.023 376.187 159.503 362.701 139.523C349.074 119.475 335.096 100.103 321.68 81.945C304.471 58.59 287.824 37.3275 273.073 18.9L267.665 12.15C261.343 4.3875 251.579 0.2025 241.184 0C230.928 0 221.305 4.6575 215.054 12.4875" fill="#6497EA" fill-opacity="0.05"/>
<path d="M374.361 12.6226L368.952 19.3051C352.375 40.6351 336.571 61.5601 321.89 82.0801C335.306 100.238 349.284 119.61 362.911 139.658C374.009 123.795 386.091 107.258 399.085 89.8426L401.052 87.1426L403.019 89.8426C416.575 107.393 429.148 123.998 440.457 140.063C455.699 161.055 469.326 180.833 481.548 199.463C564.502 325.485 582.344 397.643 580.588 437.333C576.936 515.498 529.242 553.163 484.288 571.388C460.757 580.77 438.21 584.955 422.897 586.845C412.291 588.06 405.056 588.263 403.792 588.263C403.511 588.263 396.627 588.06 385.88 586.778C371.059 584.82 348.582 580.635 325.262 571.388C279.465 553.163 230.155 515.43 226.573 437.535C224.817 397.508 242.167 325.485 322.733 199.395C310.511 180.765 296.885 160.988 281.712 139.995C198.898 265.005 155.981 369.225 159.142 440.235C162.373 506.52 189.837 553.838 226.924 586.778C256.355 612.968 291.687 629.978 325.543 640.305C347.95 647.123 369.514 650.903 388.268 652.388C389.673 652.388 397.329 652.793 405.758 652.793C410.324 652.793 414.96 652.658 419.034 652.388C440.317 650.835 462.794 646.988 484.709 640.305C519.83 629.843 553.897 612.36 581.853 586.845C618.87 553.163 644.929 505.373 647.879 440.235C651.953 354.645 588.807 238.005 522.007 139.59C508.31 119.543 494.403 100.17 480.916 82.0126C463.777 58.6576 447.201 37.3951 432.38 18.9676L426.901 12.2176C420.509 4.45507 410.956 0.270066 400.56 0.0675659C390.235 0.0675659 380.752 4.72507 374.431 12.5551" fill="#6497EA" fill-opacity="0.05"/>
</svg>
